<?xml version="1.0" encoding="utf-8"?>
<!-- Generator: Adobe Illustrator 16.0.2, SVG Export Plug-In . SVG Version: 6.00 Build 0)  -->
<!DOCTYPE svg PUBLIC "-//W3C//DTD SVG 1.1//EN" "http://www.w3.org/Graphics/SVG/1.1/DTD/svg11.dtd">
<svg version="1.1" id="圖層_2" xmlns="http://www.w3.org/2000/svg" xmlns:xlink="http://www.w3.org/1999/xlink" x="0px" y="0px"
	 width="15.004px" height="28.007px" viewBox="0 0 15.004 28.007" enable-background="new 0 0 15.004 28.007" xml:space="preserve">
<g id="Forma_1_xA0_剪裁路徑_1_">
	<g>
		<path fill="#F9AB0E" d="M14.275,20.007c0.419-0.408,0.176-1.165-0.396-1.224l-3.848-0.384c-0.242-0.023-0.452-0.186-0.551-0.431
			l-1.378-3.529c-0.221-0.582-1.004-0.582-1.224,0l-1.367,3.529c-0.088,0.245-0.308,0.407-0.551,0.431l-3.847,0.384
			c-0.573,0.059-0.805,0.815-0.375,1.224l2.899,2.69c0.188,0.174,0.265,0.431,0.21,0.687l-0.872,3.773
			c-0.132,0.594,0.474,1.083,0.981,0.769l3.208-1.991c0.21-0.128,0.462-0.128,0.672,0l3.208,1.991
			c0.507,0.314,1.114-0.163,0.981-0.769l-0.86-3.773c-0.055-0.256,0.022-0.513,0.21-0.687L14.275,20.007z"/>
	</g>
</g>
<g id="Forma_1_xA0_剪裁路徑_3_">
	<g>
		<path fill="#927F6F" d="M14.275,6.003c0.418-0.407,0.176-1.165-0.396-1.223l-3.847-0.384C9.789,4.373,9.58,4.209,9.48,3.965
			L8.103,0.436c-0.22-0.582-1.004-0.582-1.225,0L5.511,3.965C5.423,4.209,5.203,4.373,4.96,4.396L1.113,4.78
			C0.54,4.838,0.308,5.596,0.738,6.003l2.899,2.691c0.188,0.174,0.265,0.43,0.21,0.687l-0.871,3.773
			c-0.132,0.593,0.474,1.083,0.98,0.768l3.208-1.991c0.21-0.128,0.463-0.128,0.672,0l3.208,1.991
			c0.508,0.314,1.115-0.162,0.982-0.768l-0.86-3.773c-0.056-0.256,0.021-0.512,0.21-0.687L14.275,6.003z"/>
	</g>
</g>
</svg>
