<svg xmlns="http://www.w3.org/2000/svg" viewBox="0 0 92 92"><defs><style>.cls-1{fill:#caddff;}.cls-2{fill:#003a8e;opacity:0.18;}.cls-3{fill:#75a2ea;}.cls-4{fill:#92c4ff;}.cls-5{fill:#edf2fd;}.cls-6{fill:#5a8cff;}.cls-7{fill:#78a5ff;}</style></defs><g id="图层_2" data-name="图层 2"><g id="图层_1-2" data-name="图层 1"><rect className="cls-1" width="92" height="92" rx="6.38"/><path class="cls-2" d="M21.12,71.82,41.49,92H85.62A6.38,6.38,0,0,0,92,85.62V52.33L68.2,24.74Z"/><path class="cls-3" d="M42.29,18.86a5.06,5.06,0,0,1,7.07,0l8.82,9.59L70.53,41.88H21.12L33.47,28.45Z"/><path class="cls-4" d="M21.12,41.88H70.53a0,0,0,0,1,0,0V72A3.52,3.52,0,0,1,67,75.52H25.18a4.07,4.07,0,0,1-4.07-4.07V41.88A0,0,0,0,1,21.12,41.88Z"/><path class="cls-5" d="M24.06,24.1H67.58a1.26,1.26,0,0,1,1.26,1.26V73.24a2.28,2.28,0,0,1-2.28,2.28H25.27a2.46,2.46,0,0,1-2.46-2.46V25.36A1.26,1.26,0,0,1,24.06,24.1Z"/><rect class="cls-4" x="26.54" y="32.24" width="38.56" height="1.19"/><rect class="cls-4" x="26.54" y="39.04" width="38.56" height="1.19"/><rect class="cls-4" x="26.54" y="45.84" width="38.56" height="1.19"/><path class="cls-6" d="M29.11,75.52H65.46c2.8,0,5.07-1.84,5.07-4.11V41.88H68.8Z"/><path class="cls-7" d="M62.53,75.52H26.18c-2.8,0-5.06-1.84-5.06-4.11V41.88h1.73Z"/></g></g></svg>
