<svg xmlns="http://www.w3.org/2000/svg" viewBox="0 0 92 92"><defs><style>.cls-1{fill:#caddff;}.cls-2{fill:#003a8e;opacity:0.18;}.cls-3{fill:#5a8cff;}.cls-4{fill:#78a5ff;}.cls-5{fill:#fff;}</style></defs><g id="图层_2" data-name="图层 2"><g id="图层_1-2" data-name="图层 1"><rect class="cls-1" width="92" height="92" rx="6.38"/><path class="cls-2" d="M56.93,34.71l7.8-7.94-20.55-2L23.05,31.21,19.36,39l1.72,14.63,20.75-3.86-20,20L42.38,92H85.62A6.38,6.38,0,0,0,92,85.62V51.76l-24.14-28Z"/><path class="cls-3" d="M65.4,40.75c-6.07-2-3.63-5.79-7.28-7.27A34.58,34.58,0,0,0,46,31.06a35.2,35.2,0,0,0-12.12,2.42c-3.65,1.46-1.21,5.28-7.28,7.27-6.41,2.11-9.75-1-9.68-4.8,0-2.56,1.62-5.44,4.83-7.32C30,23.83,46,23.78,46,23.78s16,0,24.25,4.85a9,9,0,0,1,4.83,7.27c.1,3.84-3.24,7-9.68,4.85ZM37.73,39h4.12v4.16h8.32V39h4.16v4.16L71,57.73v9.69c0,2.68-2.92,4.85-5.59,4.85H26.6c-2.67,0-5.52-2.17-5.52-4.85V57.73L37.73,43.19Zm8.32,27.09a8.32,8.32,0,1,0-8.32-8.32,8.33,8.33,0,0,0,8.32,8.32Z"/><path class="cls-4" d="M65.4,36.7c-6.07-2-3.63-5.8-7.28-7.27A34.73,34.73,0,0,0,46,27a35.36,35.36,0,0,0-12.12,2.43c-3.65,1.46-1.21,5.27-7.28,7.27-6.41,2.11-9.75-1-9.68-4.8,0-2.56,1.62-5.45,4.83-7.32C30,19.78,46,19.73,46,19.73s16,.05,24.25,4.85c3.19,1.86,4.77,4.72,4.83,7.26.1,3.85-3.24,7-9.68,4.86ZM37.73,35h4.12v4.16h8.32V35h4.16v4.16L71,53.67v9.7c0,2.68-2.92,4.85-5.59,4.85H26.6c-2.67,0-5.52-2.17-5.52-4.85v-9.7L37.73,39.14Zm8.32,27.08a8.32,8.32,0,1,0-8.32-8.31,8.32,8.32,0,0,0,8.32,8.31Z"/><ellipse class="cls-5" cx="46.21" cy="53.26" rx="8.48" ry="8.04"/><ellipse class="cls-4" cx="46.21" cy="52.85" rx="7.44" ry="6.59"/></g></g></svg>