<svg xmlns="http://www.w3.org/2000/svg" xmlns:xlink="http://www.w3.org/1999/xlink" width="30.003" height="30.003" viewBox="0 0 30.003 30.003">
  <defs>
    <clipPath id="clip-path">
      <path id="路径_140" data-name="路径 140" d="M80.16,80.3m-15,0a15,15,0,1,0,15-15,15,15,0,0,0-15,15Z" fill="#fff"/>
    </clipPath>
  </defs>
  <g id="PC_-_ye" data-name="PC - ye" transform="translate(-297.183 -353.195)">
    <rect id="矩形_144" data-name="矩形 144" width="30" height="30.001" rx="15" transform="translate(297.183 353.195)" fill="#dfeaed"/>
    <g id="蒙版组_10" data-name="蒙版组 10" transform="translate(392.344 448.498) rotate(180)" clip-path="url(#clip-path)">
      <path id="路径_138" data-name="路径 138" d="M296.112,319.933l12.648,12.648A24.5,24.5,0,0,0,332.445,308.9L319.8,296.248Z" transform="translate(-227.247 -228.243)" fill="#fff" opacity="0.32"/>
    </g>
    <g id="组_762" data-name="组 762" transform="translate(303.963 360.09)">
      <path id="路径_142" data-name="路径 142" d="M337.525,388.787a8.143,8.143,0,1,1-8.949-10.682.432.432,0,0,1,.357.745,6.207,6.207,0,0,0,7.944,9.441.431.431,0,0,1,.648.5Z" transform="translate(-321.673 -378.1)" fill="#092447" fill-rule="evenodd"/>
      <path id="路径_143" data-name="路径 143" d="M336.308,395.071a7.319,7.319,0,0,0,2.172-2.457,6.981,6.981,0,0,1-.737.269,7.068,7.068,0,0,1-7.959-10.651,7.281,7.281,0,1,0,6.524,12.838Z" transform="translate(-323.934 -381.09)" fill="#092447" fill-rule="evenodd"/>
      <path id="路径_144" data-name="路径 144" d="M354.758,380.5l.421,1.372a1.2,1.2,0,0,0,.3.5l.018.019a1.217,1.217,0,0,0,.483.277l1.371.421a.431.431,0,0,1,0,.824l-1.371.421a1.167,1.167,0,0,0-.8.8l-.421,1.371a.431.431,0,0,1-.824,0l-.421-1.371a1.2,1.2,0,0,0-.295-.5h0a1.194,1.194,0,0,0-.5-.3l-1.372-.421a.431.431,0,0,1,0-.824l1.372-.421a1.2,1.2,0,0,0,.5-.295h0a1.2,1.2,0,0,0,.295-.5l.421-1.372a.431.431,0,0,1,.824,0Z" transform="translate(-342.917 -379.619)" fill="#092447" fill-rule="evenodd"/>
      <path id="路径_145" data-name="路径 145" d="M370.179,401.712l.125.407a.379.379,0,0,0,.1.163.39.39,0,0,0,.163.1l.408.125a.431.431,0,0,1,0,.824l-.408.125a.389.389,0,0,0-.163.094l0,0a.376.376,0,0,0-.094.163l-.125.407a.431.431,0,0,1-.824,0l-.125-.407a.394.394,0,0,0-.1-.163.39.39,0,0,0-.164-.1l-.407-.125a.431.431,0,0,1,0-.824l.407-.125a.39.39,0,0,0,.164-.094v0a.392.392,0,0,0,.1-.163l.125-.407a.431.431,0,0,1,.824,0Z" transform="translate(-355.372 -394.96)" fill="#092447" fill-rule="evenodd"/>
      <path id="路径_146" data-name="路径 146" d="M359.321,387.1l-.01-.031-.009.031a2.061,2.061,0,0,1-.508.856l0,0a2.059,2.059,0,0,1-.857.509l-.031.009.031.01a2.058,2.058,0,0,1,.859.508h0a2.055,2.055,0,0,1,.51.857l.009.031.01-.031a2.01,2.01,0,0,1,1.367-1.367l.03-.01-.03-.009a2.065,2.065,0,0,1-.832-.484l-.027-.024A2.058,2.058,0,0,1,359.321,387.1Z" transform="translate(-347.882 -384.585)" fill="#092447" fill-rule="evenodd"/>
    </g>
  </g>
</svg>
