<svg xmlns="http://www.w3.org/2000/svg" xmlns:xlink="http://www.w3.org/1999/xlink" width="30.003" height="30.003" viewBox="0 0 30.003 30.003">
  <defs>
    <clipPath id="clip-path">
      <path id="路径_140" data-name="路径 140" d="M80.16,80.3m-15,0a15,15,0,1,0,15-15,15,15,0,0,0-15,15Z" fill="#5a8cff"/>
    </clipPath>
  </defs>
  <g id="PC_-_bai_" data-name="PC - bai " transform="translate(-65.158 -65.299)">
    <path id="路径_137" data-name="路径 137" d="M80.16,80.3m-15,0a15,15,0,1,0,15-15,15,15,0,0,0-15,15Z" transform="translate(0 0)" fill="#5a8cff"/>
    <g id="蒙版组_10" data-name="蒙版组 10" transform="translate(0 0)" clip-path="url(#clip-path)">
      <path id="路径_138" data-name="路径 138" d="M296.112,319.933l12.648,12.648A24.5,24.5,0,0,0,332.445,308.9L319.8,296.248Z" transform="translate(-227.888 -228.056)" fill="#457bf6"/>
    </g>
    <g id="组_764" data-name="组 764" transform="translate(10.135 28.373)">
      <path id="路径_147" data-name="路径 147" d="M282.612,285.353a4.13,4.13,0,0,0-1.064,2.879c.007.1,0,.169.022.315.015.127.027.263.051.374a4.234,4.234,0,0,0,.178.68,3.972,3.972,0,0,0,.658,1.181,4.395,4.395,0,0,0,1.829,1.32,5.142,5.142,0,0,0,1.624.346,3.969,3.969,0,0,0,1.115-.093l.028-.008a2.792,2.792,0,1,0-2.891-2.789,2.821,2.821,0,0,0,.019.319,2.429,2.429,0,0,1-.213-.258,2.454,2.454,0,0,1-.429-1.456,2.378,2.378,0,0,1,.575-1.513,3.245,3.245,0,0,1,1.635-1.022,4.489,4.489,0,0,1,.536-.117c.1-.018.176-.024.264-.036l.3-.022a3.483,3.483,0,0,1,2.884,1.282,4.039,4.039,0,0,1,.839,2.038,4.383,4.383,0,0,1-.222,2.14,3.517,3.517,0,0,1-1.2,1.514,5.478,5.478,0,0,1-1.54.787,8.207,8.207,0,0,1-1.333.327,7.733,7.733,0,0,1-1.2.117l-.006.114a7.592,7.592,0,0,0,1.235.027,8.528,8.528,0,0,0,1.416-.187,5.91,5.91,0,0,0,1.767-.677,4.233,4.233,0,0,0,1.6-1.678,4.969,4.969,0,0,0,.42-1.222,5.751,5.751,0,0,0,.089-.656l.014-.167c0-.033.005-.045.006-.094l0-.077c0-.1.008-.205,0-.33a5.122,5.122,0,0,0-.827-2.742,4.917,4.917,0,0,0-2.391-1.9,5.1,5.1,0,0,0-1.546-.318l-.361-.008c-.132,0-.272,0-.395.014a6.27,6.27,0,0,0-.762.093A4.774,4.774,0,0,0,282.612,285.353Z" transform="translate(-216.407 -236.425)" fill="#f7e100"/>
      <path id="路径_148" data-name="路径 148" d="M420.015,46.034l-2.269-3.858s-2.132,3.914-2.053,3.885a6.435,6.435,0,0,1,4.321-.027Z" transform="translate(-347.695 0)" fill="#f7e100"/>
      <path id="路径_149" data-name="路径 149" d="M635.088,169.714a6.515,6.515,0,0,1,3.271,2.967c.1-.254,1.085-4.265,1.085-4.265Z" transform="translate(-562.421 -123.552)" fill="#f7e100"/>
      <path id="路径_150" data-name="路径 150" d="M800.521,394.439a6.472,6.472,0,0,1-.4,2.232l3.867-2.533L800,391.888A6.473,6.473,0,0,1,800.521,394.439Z" transform="translate(-723.821 -342.266)" fill="#f7e100"/>
      <path id="路径_151" data-name="路径 151" d="M641.6,629.04a6.521,6.521,0,0,1-3.468,3.489l4.6.992Z" transform="translate(-565.396 -574.369)" fill="#f7e100"/>
      <path id="路径_152" data-name="路径 152" d="M419.68,800h0Z" transform="translate(-351.599 -741.688)" fill="#f7e100"/>
      <path id="路径_153" data-name="路径 153" d="M419.76,800l2.308,4.02L424,800a6.408,6.408,0,0,1-4.238,0Z" transform="translate(-351.677 -741.688)" fill="#f7e100"/>
      <path id="路径_154" data-name="路径 154" d="M201.735,646l-.951,4.12,4.268-.985A6.514,6.514,0,0,1,201.735,646Z" transform="translate(-137.364 -590.967)" fill="#f7e100"/>
      <path id="路径_155" data-name="路径 155" d="M63.7,414.984a6.479,6.479,0,0,1,.355-2.1l-3.625,2.11,3.788,2.539A6.477,6.477,0,0,1,63.7,414.984Z" transform="translate(0 -362.811)" fill="#f7e100"/>
      <path id="路径_156" data-name="路径 156" d="M170.151,188.782a6.524,6.524,0,0,1,3.046-3.163c-.392-.128-4.588-1.139-4.588-1.139Z" transform="translate(-105.873 -139.274)" fill="#f7e100"/>
    </g>
  </g>
</svg>
