<?xml version="1.0" encoding="utf-8"?>
<!-- Generator: Adobe Illustrator 24.2.3, SVG Export Plug-In . SVG Version: 6.00 Build 0)  -->
<svg version="1.1" id="图层_1" xmlns="http://www.w3.org/2000/svg" xmlns:xlink="http://www.w3.org/1999/xlink" x="0px" y="0px"
	 viewBox="0 0 26 26" style="enable-background:new 0 0 26 26;" xml:space="preserve">
<style type="text/css">
	.st0{fill:#EEEEEE;stroke:#CCCCCC;stroke-miterlimit:10;}
	.st1{fill:#CCCCCC;}
</style>
<rect x="0.5" y="0.5" class="st0" width="25" height="25"/>
<path class="st1" d="M22.2,5.3H3.8C3.4,5.3,3,5.6,3,6l0,0v12.2c0,0.4,0.3,0.7,0.7,0.7l0,0h8.1l-1.9,1.5c-0.1,0.1-0.1,0.2-0.1,0.2
	c0,0.1,0.1,0.1,0.2,0.1h6c0.1,0,0.2-0.1,0.2-0.2s0-0.1-0.1-0.1l-2-1.5h8.1c0.4,0,0.7-0.3,0.7-0.7l0,0V6C23,5.6,22.6,5.3,22.2,5.3z
	 M22,17.9H4V6.3h18V17.9z"/>
</svg>
