<svg xmlns="http://www.w3.org/2000/svg" viewBox="0 0 26 26"><defs><style>.cls-1{fill:#e9f2ff;stroke:#3877f4;stroke-miterlimit:10;}.cls-2{fill:#3877f4;}</style></defs><g id="图层_2" data-name="图层 2"><g id="图层_1-2" data-name="图层 1"><rect class="cls-1" x="0.5" y="0.5" width="25" height="25"/><path class="cls-2" d="M22.24,5.29H3.76A.72.72,0,0,0,3,6V18.19a.71.71,0,0,0,.72.71h8.08L9.9,20.38a.18.18,0,0,0,.11.33h6a.19.19,0,0,0,.12-.33L14.16,18.9h8.08a.71.71,0,0,0,.72-.71V6A.72.72,0,0,0,22.24,5.29ZM22,17.9H4V6.29H22Z"/></g></g></svg>